<svg id="visual" viewBox="0 0 1920 1080" width="1920" height="1080" xmlns="http://www.w3.org/2000/svg" xmlns:xlink="http://www.w3.org/1999/xlink" version="1.1"><path d="M0 260L175 303L349 152L524 303L698 120L873 239L1047 293L1222 131L1396 206L1571 271L1745 293L1920 109L1920 0L1745 0L1571 0L1396 0L1222 0L1047 0L873 0L698 0L524 0L349 0L175 0L0 0Z" fill="#dedede"></path><path d="M0 422L175 465L349 303L524 379L698 347L873 347L1047 433L1222 239L1396 336L1571 368L1745 368L1920 282L1920 107L1745 291L1571 269L1396 204L1222 129L1047 291L873 237L698 118L524 301L349 150L175 301L0 258Z" fill="#bec6cb"></path><path d="M0 606L175 541L349 422L524 541L698 455L873 487L1047 541L1222 368L1396 476L1571 465L1745 455L1920 368L1920 280L1745 366L1571 366L1396 334L1222 237L1047 431L873 345L698 345L524 377L349 301L175 463L0 420Z" fill="#9eaeb9"></path><path d="M0 876L175 833L349 789L524 735L698 703L873 671L1047 930L1222 746L1396 843L1571 833L1745 789L1920 757L1920 366L1745 453L1571 463L1396 474L1222 366L1047 539L873 485L698 453L524 539L349 420L175 539L0 604Z" fill="#7f97a7"></path><path d="M0 1081L175 1081L349 1081L524 1081L698 1081L873 1081L1047 1081L1222 1081L1396 1081L1571 1081L1745 1081L1920 1081L1920 755L1745 787L1571 831L1396 841L1222 744L1047 928L873 669L698 701L524 733L349 787L175 831L0 874Z" fill="#5f8095"></path></svg>