<svg id="visual" viewBox="0 0 1920 1080" width="1920" height="1080" xmlns="http://www.w3.org/2000/svg" xmlns:xlink="http://www.w3.org/1999/xlink" version="1.1"><rect x="0" y="0" width="1920" height="1080" fill="#eeeeee"></rect><path d="M0 824L32 811.3C64 798.7 128 773.3 192 765.5C256 757.7 320 767.3 384 768.7C448 770 512 763 576 772.3C640 781.7 704 807.3 768 821.8C832 836.3 896 839.7 960 843C1024 846.3 1088 849.7 1152 838C1216 826.3 1280 799.7 1344 778C1408 756.3 1472 739.7 1536 738.8C1600 738 1664 753 1728 762.3C1792 771.7 1856 775.3 1888 777.2L1920 779L1920 1081L1888 1081C1856 1081 1792 1081 1728 1081C1664 1081 1600 1081 1536 1081C1472 1081 1408 1081 1344 1081C1280 1081 1216 1081 1152 1081C1088 1081 1024 1081 960 1081C896 1081 832 1081 768 1081C704 1081 640 1081 576 1081C512 1081 448 1081 384 1081C320 1081 256 1081 192 1081C128 1081 64 1081 32 1081L0 1081Z" fill="#ef8181"></path><path d="M0 830L32 831.2C64 832.3 128 834.7 192 842.5C256 850.3 320 863.7 384 861C448 858.3 512 839.7 576 829.5C640 819.3 704 817.7 768 825.5C832 833.3 896 850.7 960 857.8C1024 865 1088 862 1152 852.8C1216 843.7 1280 828.3 1344 830.5C1408 832.7 1472 852.3 1536 867.5C1600 882.7 1664 893.3 1728 898.7C1792 904 1856 904 1888 904L1920 904L1920 1081L1888 1081C1856 1081 1792 1081 1728 1081C1664 1081 1600 1081 1536 1081C1472 1081 1408 1081 1344 1081C1280 1081 1216 1081 1152 1081C1088 1081 1024 1081 960 1081C896 1081 832 1081 768 1081C704 1081 640 1081 576 1081C512 1081 448 1081 384 1081C320 1081 256 1081 192 1081C128 1081 64 1081 32 1081L0 1081Z" fill="#c5695c"></path><path d="M0 927L32 921.2C64 915.3 128 903.7 192 892C256 880.3 320 868.7 384 864.3C448 860 512 863 576 868.3C640 873.7 704 881.3 768 879C832 876.7 896 864.3 960 863.5C1024 862.7 1088 873.3 1152 885.8C1216 898.3 1280 912.7 1344 916C1408 919.3 1472 911.7 1536 905C1600 898.3 1664 892.7 1728 898.2C1792 903.7 1856 920.3 1888 928.7L1920 937L1920 1081L1888 1081C1856 1081 1792 1081 1728 1081C1664 1081 1600 1081 1536 1081C1472 1081 1408 1081 1344 1081C1280 1081 1216 1081 1152 1081C1088 1081 1024 1081 960 1081C896 1081 832 1081 768 1081C704 1081 640 1081 576 1081C512 1081 448 1081 384 1081C320 1081 256 1081 192 1081C128 1081 64 1081 32 1081L0 1081Z" fill="#9c523b"></path><path d="M0 940L32 938.5C64 937 128 934 192 933.7C256 933.3 320 935.7 384 939.5C448 943.3 512 948.7 576 949.8C640 951 704 948 768 951.5C832 955 896 965 960 960.3C1024 955.7 1088 936.3 1152 935.5C1216 934.7 1280 952.3 1344 951.7C1408 951 1472 932 1536 934.5C1600 937 1664 961 1728 960.7C1792 960.3 1856 935.7 1888 923.3L1920 911L1920 1081L1888 1081C1856 1081 1792 1081 1728 1081C1664 1081 1600 1081 1536 1081C1472 1081 1408 1081 1344 1081C1280 1081 1216 1081 1152 1081C1088 1081 1024 1081 960 1081C896 1081 832 1081 768 1081C704 1081 640 1081 576 1081C512 1081 448 1081 384 1081C320 1081 256 1081 192 1081C128 1081 64 1081 32 1081L0 1081Z" fill="#743c1e"></path><path d="M0 989L32 998C64 1007 128 1025 192 1022.7C256 1020.3 320 997.7 384 989.5C448 981.3 512 987.7 576 998.7C640 1009.7 704 1025.3 768 1029C832 1032.7 896 1024.3 960 1020.5C1024 1016.7 1088 1017.3 1152 1016.8C1216 1016.3 1280 1014.7 1344 1010C1408 1005.3 1472 997.7 1536 996.8C1600 996 1664 1002 1728 1010.7C1792 1019.3 1856 1030.7 1888 1036.3L1920 1042L1920 1081L1888 1081C1856 1081 1792 1081 1728 1081C1664 1081 1600 1081 1536 1081C1472 1081 1408 1081 1344 1081C1280 1081 1216 1081 1152 1081C1088 1081 1024 1081 960 1081C896 1081 832 1081 768 1081C704 1081 640 1081 576 1081C512 1081 448 1081 384 1081C320 1081 256 1081 192 1081C128 1081 64 1081 32 1081L0 1081Z" fill="#4e2702"></path></svg>