<svg id="visual" viewBox="0 0 1920 1080" width="1920" height="1080" xmlns="http://www.w3.org/2000/svg" xmlns:xlink="http://www.w3.org/1999/xlink" version="1.1"><rect x="0" y="0" width="1920" height="1080" fill="#fcfcfc"></rect><defs><linearGradient id="grad1_0" x1="43.8%" y1="0%" x2="100%" y2="100%"><stop offset="14.444444444444446%" stop-color="#bbbbbb" stop-opacity="1"></stop><stop offset="85.55555555555554%" stop-color="#bbbbbb" stop-opacity="1"></stop></linearGradient></defs><defs><linearGradient id="grad1_1" x1="43.8%" y1="0%" x2="100%" y2="100%"><stop offset="14.444444444444446%" stop-color="#bbbbbb" stop-opacity="1"></stop><stop offset="85.55555555555554%" stop-color="#cbcbcb" stop-opacity="1"></stop></linearGradient></defs><defs><linearGradient id="grad1_2" x1="43.8%" y1="0%" x2="100%" y2="100%"><stop offset="14.444444444444446%" stop-color="#dbdbdb" stop-opacity="1"></stop><stop offset="85.55555555555554%" stop-color="#cbcbcb" stop-opacity="1"></stop></linearGradient></defs><defs><linearGradient id="grad1_3" x1="43.8%" y1="0%" x2="100%" y2="100%"><stop offset="14.444444444444446%" stop-color="#dbdbdb" stop-opacity="1"></stop><stop offset="85.55555555555554%" stop-color="#ebebeb" stop-opacity="1"></stop></linearGradient></defs><defs><linearGradient id="grad1_4" x1="43.8%" y1="0%" x2="100%" y2="100%"><stop offset="14.444444444444446%" stop-color="#fcfcfc" stop-opacity="1"></stop><stop offset="85.55555555555554%" stop-color="#ebebeb" stop-opacity="1"></stop></linearGradient></defs><defs><linearGradient id="grad2_0" x1="0%" y1="0%" x2="56.3%" y2="100%"><stop offset="14.444444444444446%" stop-color="#bbbbbb" stop-opacity="1"></stop><stop offset="85.55555555555554%" stop-color="#bbbbbb" stop-opacity="1"></stop></linearGradient></defs><defs><linearGradient id="grad2_1" x1="0%" y1="0%" x2="56.3%" y2="100%"><stop offset="14.444444444444446%" stop-color="#cbcbcb" stop-opacity="1"></stop><stop offset="85.55555555555554%" stop-color="#bbbbbb" stop-opacity="1"></stop></linearGradient></defs><defs><linearGradient id="grad2_2" x1="0%" y1="0%" x2="56.3%" y2="100%"><stop offset="14.444444444444446%" stop-color="#cbcbcb" stop-opacity="1"></stop><stop offset="85.55555555555554%" stop-color="#dbdbdb" stop-opacity="1"></stop></linearGradient></defs><defs><linearGradient id="grad2_3" x1="0%" y1="0%" x2="56.3%" y2="100%"><stop offset="14.444444444444446%" stop-color="#ebebeb" stop-opacity="1"></stop><stop offset="85.55555555555554%" stop-color="#dbdbdb" stop-opacity="1"></stop></linearGradient></defs><defs><linearGradient id="grad2_4" x1="0%" y1="0%" x2="56.3%" y2="100%"><stop offset="14.444444444444446%" stop-color="#ebebeb" stop-opacity="1"></stop><stop offset="85.55555555555554%" stop-color="#fcfcfc" stop-opacity="1"></stop></linearGradient></defs><g transform="translate(1920, 0)"><path d="M0 594C-52.7 567 -105.5 540 -171.5 527.8C-237.5 515.7 -316.9 518.5 -341.5 470C-366.1 421.6 -336.1 321.8 -373.8 271.6C-411.5 221.3 -516.9 220.6 -564.9 183.6C-612.9 146.5 -603.5 73.3 -594 0L0 0Z" fill="#f4f4f4"></path><path d="M0 475.2C-42.2 453.6 -84.4 432 -137.2 422.3C-190 412.6 -253.5 414.8 -273.2 376C-292.9 337.2 -268.9 257.4 -299 217.2C-329.2 177 -413.5 176.5 -451.9 146.8C-490.3 117.2 -482.8 58.6 -475.2 0L0 0Z" fill="#e3e3e3"></path><path d="M0 356.4C-31.6 340.2 -63.3 324 -102.9 316.7C-142.5 309.4 -190.1 311.1 -204.9 282C-219.7 252.9 -201.6 193.1 -224.3 162.9C-246.9 132.8 -310.2 132.3 -339 110.1C-367.8 87.9 -362.1 44 -356.4 0L0 0Z" fill="#d3d3d3"></path><path d="M0 237.6C-21.1 226.8 -42.2 216 -68.6 211.1C-95 206.3 -126.7 207.4 -136.6 188C-146.5 168.6 -134.4 128.7 -149.5 108.6C-164.6 88.5 -206.8 88.2 -226 73.4C-245.2 58.6 -241.4 29.3 -237.6 0L0 0Z" fill="#c3c3c3"></path><path d="M0 118.8C-10.5 113.4 -21.1 108 -34.3 105.6C-47.5 103.1 -63.4 103.7 -68.3 94C-73.2 84.3 -67.2 64.4 -74.8 54.3C-82.3 44.3 -103.4 44.1 -113 36.7C-122.6 29.3 -120.7 14.7 -118.8 0L0 0Z" fill="#bbbbbb"></path></g><g transform="translate(0, 1080)"><path d="M0 -594C71.2 -602.8 142.4 -611.6 183.6 -564.9C224.7 -518.3 235.8 -416.2 263.9 -363.2C292 -310.3 337.1 -306.5 394.8 -286.8C452.5 -267.2 523 -231.8 558.3 -181.4C593.6 -131 593.8 -65.5 594 0L0 0Z" fill="#f4f4f4"></path><path d="M0 -475.2C57 -482.2 113.9 -489.3 146.8 -451.9C179.8 -414.6 188.7 -333 211.1 -290.6C233.6 -248.2 269.6 -245.2 315.8 -229.5C362 -213.8 418.4 -185.5 446.6 -145.1C474.9 -104.8 475 -52.4 475.2 0L0 0Z" fill="#e3e3e3"></path><path d="M0 -356.4C42.7 -361.7 85.4 -366.9 110.1 -339C134.8 -311 141.5 -249.7 158.3 -217.9C175.2 -186.2 202.2 -183.9 236.9 -172.1C271.5 -160.3 313.8 -139.1 335 -108.8C356.2 -78.6 356.3 -39.3 356.4 0L0 0Z" fill="#d3d3d3"></path><path d="M0 -237.6C28.5 -241.1 57 -244.6 73.4 -226C89.9 -207.3 94.3 -166.5 105.6 -145.3C116.8 -124.1 134.8 -122.6 157.9 -114.7C181 -106.9 209.2 -92.7 223.3 -72.6C237.4 -52.4 237.5 -26.2 237.6 0L0 0Z" fill="#c3c3c3"></path><path d="M0 -118.8C14.2 -120.6 28.5 -122.3 36.7 -113C44.9 -103.7 47.2 -83.2 52.8 -72.6C58.4 -62.1 67.4 -61.3 79 -57.4C90.5 -53.4 104.6 -46.4 111.7 -36.3C118.7 -26.2 118.8 -13.1 118.8 0L0 0Z" fill="#bbbbbb"></path></g></svg>