<svg id="visual" viewBox="0 0 1920 1080" width="1920" height="1080" xmlns="http://www.w3.org/2000/svg" xmlns:xlink="http://www.w3.org/1999/xlink" version="1.1"><rect x="0" y="0" width="1920" height="1080" fill="#e3e3e3"></rect><defs><linearGradient id="grad1_0" x1="43.8%" y1="0%" x2="100%" y2="100%"><stop offset="14.444444444444446%" stop-color="#e3e3e3" stop-opacity="1"></stop><stop offset="85.55555555555554%" stop-color="#e3e3e3" stop-opacity="1"></stop></linearGradient></defs><defs><linearGradient id="grad2_0" x1="0%" y1="0%" x2="56.3%" y2="100%"><stop offset="14.444444444444446%" stop-color="#e3e3e3" stop-opacity="1"></stop><stop offset="85.55555555555554%" stop-color="#e3e3e3" stop-opacity="1"></stop></linearGradient></defs><g transform="translate(1920, 0)"><path d="M0 594C-79.7 587.9 -159.4 581.7 -227.3 548.8C-295.2 515.8 -351.2 456.1 -396 396C-440.7 335.9 -474.2 275.4 -505.4 209.3C-536.5 143.3 -565.2 71.6 -594 0L0 0Z" fill="#b63f3f"></path></g><g transform="translate(0, 1080)"><path d="M0 -594C79.6 -587.4 159.3 -580.8 227.3 -548.8C295.3 -516.7 351.8 -459.2 400.9 -400.9C450.1 -342.6 492 -283.6 522.9 -216.6C553.9 -149.6 573.9 -74.8 594 0L0 0Z" fill="#b63f3f"></path></g></svg>